# xmcd CD database file
#
# Track frame offsets:
#	150
#	45547
#	70766
#	139409
#	165111
#	215788
#	236369
#	252682
#	280044
#
# Disc length: 3935 seconds
#
# Revision: 0
# Processed by: cddbd v1.5.1PL0 Copyright (c) Steve Scherf et al.
# Submitted via: CDex 1.51
#
DISCID=810f5d09
DTITLE=Waratah - Time Never Sleeps
DYEAR=2002
DGENRE=Jazz
TTITLE0=Rinne
TTITLE1=The Bali Boys
TTITLE2=Time Never Sleeps
TTITLE3=A Bend In The River
TTITLE4=A Prayer For East Timor
TTITLE5=Mbasera
TTITLE6=Butterfly Song
TTITLE7=Ryukyu
TTITLE8=Shrike
EXTD=YEAR: 2002
EXTT0=
EXTT1=
EXTT2=
EXTT3=
EXTT4=
EXTT5=
EXTT6=
EXTT7=
EXTT8=
PLAYORDER=
